<!--?xml version="1.0" encoding="utf-8"?-->
<!-- Generator: Adobe Illustrator 18.1.1, SVG Export Plug-In . SVG Version: 6.00 Build 0)  -->

<svg version="1.1" id="_x32_" xmlns="http://www.w3.org/2000/svg" xmlns:xlink="http://www.w3.org/1999/xlink" x="0px" y="0px" viewBox="0 0 512 512" style="width: 256px; height: 256px; opacity: 1;" xml:space="preserve">
<style type="text/css">
	.st0{fill:#4B4B4B;}
</style>
<g>
	<path class="st0" d="M378.916,313.09c-15.338-29.864-51.997-41.644-81.873-26.307l-204.176,104.9
		c-29.875,15.348-41.644,52.018-26.296,81.883l2.769,5.41c15.348,29.876,52.008,41.634,81.883,26.286l204.176-104.888
		c29.876-15.348,41.645-52.008,26.307-81.873L378.916,313.09z M334.055,375.44c-15.689,8.074-34.934,1.886-42.986-13.792
		c-8.063-15.7-1.875-34.924,13.803-42.986c15.678-8.052,34.934-1.886,42.997,13.803C355.932,348.153,349.733,367.388,334.055,375.44
		z" style="fill: rgb(75, 75, 75);"></path>
	<path class="st0" d="M360.373,117.787c-11.673,34.903-26.287,78.422-37.513,112.334c-2.076,6.22-4.153,12.216-5.889,17.67
		c2.609-0.32,5.23-0.436,7.849-0.436c27.266,0,52.572,11.673,70.018,31.526L482.42,17.233
		C438.678,2.62,382.952,50.283,360.373,117.787z" style="fill: rgb(75, 75, 75);"></path>
	<path class="st0" d="M240.072,118.66l-27.266,39.27l44.723,12.206l-27.809,37.629l45.478,14.612l-28.8,33.487l-0.319,0.329
		l5.772,17.01l30.216-15.486c6.763-3.493,13.964-6.103,21.27-7.849c2.396-7.094,5.123-15.05,7.956-23.667
		c1.64-4.91,3.27-9.926,5.016-15.166L244.982,0c0,0-52.456,31.197-46.683,114.848L240.072,118.66z" style="fill: rgb(75, 75, 75);"></path>
	<path class="st0" d="M127.579,236.959c16.168-4.452,20.651,12.93,24.028,24.486c4.772,16.008,14.102,29.545,31.356,33.422
		c17.488,3.951,30.248-6.198,44.69-13.857c4.995-2.673,9.352-3.366,13.132-2.62l-7.754-22.836
		c-5.527,0.714-11.056,2.493-16.157,5.187c-12.046,6.423-31.016,21.493-40.228,2.471c-9.011-18.447-8.893-39.078-31.367-47.396
		c-17.542-6.615-32.176,2.034-46.98,10.736c-11.525,6.784-22.441,6.412-32.773-2.503c-2.237-1.971-31.664-34.02-35.946-23.538
		c-0.117,0.213,12.898,16.583,13.772,18.553c3.163,6.689,5.708,13.474,10.512,19.215c6.732,8.062,17.201,14.314,27.788,15.56
		C100.313,256.151,111.091,241.613,127.579,236.959z" style="fill: rgb(75, 75, 75);"></path>
</g>
</svg>
